<svg width="25" height="32" viewBox="0 0 25 32" fill="none" xmlns="http://www.w3.org/2000/svg">
<path d="M9.84416 5.62713V8.60619H7.1961V5.62713H9.84416V5.62713ZM15.1555 5.62713V8.60619H17.8036V5.62713H15.1555V5.62713ZM4.88666 11.8199V13.8169L5.77608 13.9103C7.94848 14.1387 10.2106 14.2545 12.4998 14.2545C15.9433 14.2545 19.2564 13.997 22.3513 13.4919L22.3519 13.5256L25 13.0053V10.1116C25 4.53613 20.4639 0 14.8881 0H10.1116C4.53613 0 0 4.53613 0 10.1116V24.7024C0 26.8927 1.78181 28.6745 3.97209 28.6745H4.55566V29.4597C4.55566 30.3723 5.29811 31.1147 6.21069 31.1147H6.87271C7.7853 31.1147 8.52775 30.3723 8.52775 29.4597V28.6745H16.4719V29.4597C16.4719 30.3723 17.2144 31.1147 18.127 31.1147H18.789C19.7016 31.1147 20.444 30.3723 20.444 29.4597V28.6745H21.0279C23.2182 28.6745 25 26.8927 25 24.7024V15.1039L22.3185 15.4422V24.7021H22.3519C22.3519 25.4323 21.7581 26.0261 21.0279 26.0261H3.97209C3.24189 26.0261 2.64806 25.4323 2.64806 24.7021V10.1113C2.64806 5.9962 5.9962 2.64806 10.1116 2.64806H14.8881C18.9508 2.64806 22.2659 5.9108 22.3503 9.95373H22.3245V11.4615C19.2825 11.9758 15.9135 12.2473 12.4998 12.2473C10.2791 12.2473 8.08651 12.1351 5.98362 11.914L4.88666 11.8199Z" fill="white"/>
</svg>
